<svg width="365" height="365" viewBox="0 0 365 365" fill="none" xmlns="http://www.w3.org/2000/svg">
<path d="M182.5 365C157.254 365 133.529 360.206 111.325 350.619C89.1209 341.032 69.8063 328.032 53.3813 311.619C36.9563 295.206 23.9562 275.891 14.381 253.675C4.80586 231.459 0.0121898 207.734 2.31013e-05 182.5C-0.0121436 157.266 4.78152 133.541 14.381 111.325C23.9805 89.1087 36.9806 69.7941 53.3813 53.3813C69.7819 36.9684 89.0965 23.9683 111.325 14.381C133.554 4.79367 157.279 0 182.5 0C207.722 0 231.447 4.79367 253.675 14.381C275.904 23.9683 295.218 36.9684 311.619 53.3813C328.019 69.7941 341.026 89.1087 350.637 111.325C360.249 133.541 365.037 157.266 365 182.5C364.964 207.734 360.17 231.459 350.619 253.675C341.068 275.891 328.068 295.206 311.619 311.619C295.169 328.032 275.855 341.038 253.675 350.637C231.495 360.237 207.77 365.024 182.5 365ZM182.5 328.5C223.258 328.5 257.781 314.356 286.069 286.069C314.356 257.781 328.5 223.258 328.5 182.5C328.5 141.742 314.356 107.219 286.069 78.9312C257.781 50.6437 223.258 36.5 182.5 36.5C141.742 36.5 107.219 50.6437 78.9313 78.9312C50.6438 107.219 36.5 141.742 36.5 182.5C36.5 223.258 50.6438 257.781 78.9313 286.069C107.219 314.356 141.742 328.5 182.5 328.5Z" fill="#E89BBA" fill-opacity="0.3"/>
</svg>
