<svg width="297" height="297" viewBox="0 0 297 297" fill="none" xmlns="http://www.w3.org/2000/svg">
<path d="M14.4964 198.63L87.1727 125.977L78.2001 23.6054C78.0032 21.2637 78.5295 18.9181 79.708 16.885C80.8864 14.8519 82.6602 13.2293 84.7899 12.2362C86.9197 11.243 89.3028 10.9272 91.6177 11.3314C93.9326 11.7355 96.0678 12.8401 97.7351 14.4961L170.388 87.1724L272.76 78.1998C275.101 78.0029 277.447 78.5292 279.48 79.7076C281.513 80.8861 283.136 82.6598 284.129 84.7896C285.122 86.9193 285.438 89.3025 285.034 91.6174C284.629 93.9323 283.525 96.0675 281.869 97.7348L209.193 170.388L218.165 272.759C218.362 275.101 217.836 277.447 216.657 279.48C215.479 281.513 213.705 283.135 211.575 284.128C209.446 285.122 207.062 285.437 204.748 285.033C202.433 284.629 200.297 283.525 198.63 281.869L125.977 209.192L23.6057 218.165C21.2641 218.362 18.9184 217.835 16.8853 216.657C14.8522 215.479 13.2296 213.705 12.2365 211.575C11.2434 209.445 10.9276 207.062 11.3317 204.747C11.7358 202.432 12.8404 200.297 14.4964 198.63Z" stroke="#E89BBA" stroke-opacity="0.3" stroke-width="22.3214" stroke-linecap="round" stroke-linejoin="round"/>
</svg>
