<svg width="113" height="113" viewBox="0 0 113 113" fill="none" xmlns="http://www.w3.org/2000/svg">
<g clip-path="url(#clip0_1803_6516)">
<path fill-rule="evenodd" clip-rule="evenodd" d="M106.136 56.958C102.669 59.9522 99.1091 62.8635 95.5988 65.9006C82.7173 60.3957 69.5546 65.6184 63.8843 81.1229C63.8294 81.3992 63.8726 81.6861 64.0065 81.934C64.1403 82.1819 64.3565 82.3754 64.6176 82.481C64.8788 82.5867 65.1686 82.598 65.4372 82.5129C65.7058 82.4279 65.9363 82.2518 66.0891 82.0151C67.9012 77.4533 71.2119 73.6441 75.4765 71.2138C79.7411 68.7835 84.7058 67.8768 89.5541 68.6429C90.3483 68.7904 91.0638 69.0316 91.8617 69.2222C84.3231 75.5747 77.6704 82.9095 72.0817 91.0305C68.9919 89.7101 66.506 87.2841 65.1108 84.2273C64.9658 83.967 64.7299 83.7692 64.4483 83.6719C64.1666 83.5746 63.8589 83.5846 63.5842 83.7C63.3094 83.8154 63.0869 84.0281 62.9592 84.2974C62.8315 84.5666 62.8075 84.8735 62.892 85.1593C64.2185 88.8448 66.7567 91.9708 70.0912 94.0258C67.8401 97.5647 65.8659 101.292 63.9385 105.059C63.8471 105.2 63.7862 105.359 63.7597 105.526C63.7332 105.692 63.7418 105.862 63.7848 106.025C63.8278 106.188 63.9043 106.34 64.0094 106.471C64.1146 106.603 64.246 106.711 64.3954 106.789C64.5447 106.867 64.7087 106.913 64.8768 106.924C65.0449 106.935 65.2134 106.911 65.3716 106.853C65.5298 106.795 65.6741 106.704 65.7954 106.588C65.9167 106.471 66.0123 106.33 66.076 106.174C68.2189 102.5 70.6221 98.9839 73.2674 95.6533C85.9984 100.876 103.224 94.074 108.175 81.7574C108.305 81.4212 108.302 81.0485 108.168 80.7141C108.034 80.3796 107.779 80.1082 107.453 79.9543C104.44 78.6989 106.477 86.1594 92.7645 91.0005C87.4315 92.9838 81.6617 93.4886 76.0654 92.4615C83.9226 83.1024 90.7764 76.2138 96.2007 70.7957C106.613 75.258 106.853 80.4886 108.992 78.6955C109.202 78.5318 109.359 78.3092 109.442 78.0561C109.525 77.803 109.531 77.5309 109.458 77.2746C109.411 77.1048 109.329 76.9466 109.218 76.8095C106.433 73.2398 103.039 70.1897 99.1937 67.7995C102.108 64.897 104.964 61.8738 107.968 59.0503C108.107 58.9306 108.22 58.7846 108.302 58.6207C108.384 58.4568 108.432 58.2783 108.445 58.0955C108.457 57.9128 108.433 57.7294 108.374 57.556C108.314 57.3827 108.221 57.2228 108.1 57.0856C107.98 56.947 107.834 56.8334 107.67 56.7516C107.506 56.6698 107.328 56.6214 107.145 56.6091C106.962 56.5968 106.779 56.621 106.606 56.6801C106.432 56.7393 106.273 56.8366 106.136 56.958Z" fill="#757575" fill-opacity="0.3"/>
<path fill-rule="evenodd" clip-rule="evenodd" d="M83.4078 5.34493C83.1767 4.96514 82.868 4.63845 82.5019 4.38626C82.1357 4.13407 81.7205 3.96207 81.2833 3.88153C77.7308 3.49007 74.1539 3.36776 70.583 3.51562C64.6245 3.81991 59.9829 4.79022 51.0363 5.61635C22.8568 8.21195 9.34663 6.486 2.51218 18.0603C-0.960969 24.0021 6.56566 64.888 9.25773 74.3267C10.9319 80.1177 10.1056 93.9397 17.9261 96.1157C23.0882 97.5738 47.7833 90.422 59.4569 90.0083C59.7252 89.9295 59.9579 89.7602 60.1156 89.5292C60.2732 89.2982 60.346 89.0198 60.3216 88.7413C60.2973 88.4627 60.1772 88.2012 59.9819 88.0011C59.7865 87.801 59.528 87.6747 59.2501 87.6436C48.3328 87.7741 22.5244 94.1553 18.6926 92.9714C16.0609 92.16 15.13 88.4655 14.5764 85.6103C40.9615 81.3055 30.7738 80.8947 60.0576 77.0306C60.3683 76.9437 60.6388 76.7509 60.8224 76.4855C61.006 76.2202 61.0911 75.8991 61.063 75.5777C61.0348 75.2563 60.8953 74.9548 60.6684 74.7254C60.4416 74.496 60.1417 74.3531 59.8206 74.3214C58.2269 74.4608 26.0901 79.3991 14.1671 82.9162C13.8543 79.3412 13.5378 75.7231 12.8458 73.2706C9.41694 59.8252 4.89418 23.0124 6.44104 20.4032C12.8279 9.56678 27.7576 13.6772 61.6451 8.45983C80.8979 5.42997 78.6904 8.92165 80.4908 7.72249C84.9415 17.9145 87.2313 45.0791 88.9926 55.2894C89.0796 55.6001 89.2724 55.8707 89.5377 56.0542C89.803 56.2378 90.1241 56.3229 90.4456 56.2948C90.767 56.2667 91.0684 56.1271 91.2979 55.9002C91.5273 55.6734 91.6702 55.3735 91.7019 55.0524C89.8183 43.9414 88.2105 15.593 83.4078 5.34493Z" fill="#757575" fill-opacity="0.3"/>
<path fill-rule="evenodd" clip-rule="evenodd" d="M53.335 57.1974C54.7566 58.2221 56.4991 58.7019 58.2449 58.5492C59.9906 58.3964 61.6234 57.6214 62.8454 56.3653C68.6548 49.3467 65.1679 44.7127 57.9241 40.7936C69.1406 31.1362 57.2912 21.1574 47.7562 28.107L46.079 29.7728C45.4792 26.7575 43.7739 24.0753 41.2979 22.2529C39.7025 21.1869 37.7552 20.7828 35.8674 21.1262C33.9796 21.4695 32.2992 22.5333 31.1813 24.0928C30.1291 26.4035 29.8472 28.9911 30.377 31.4742C30.9068 33.9573 32.2203 36.2045 34.124 37.8846C27.1614 37.6257 19.7077 39.1458 19.0578 46.1036C18.2316 54.023 31.8408 51.9209 34.4154 52.1296C33.425 53.75 32.8718 55.5995 32.8096 57.4976C32.7474 59.3956 33.1786 61.2774 34.0608 62.9591C34.9371 63.7212 35.9579 64.299 37.0624 64.658C38.1668 65.017 39.3323 65.1498 40.4892 65.0486C41.6461 64.9474 42.7708 64.6142 43.7961 64.0688C44.8214 63.5235 45.7264 62.7772 46.457 61.8745C47.508 60.5524 48.2346 59.0024 48.5784 57.3488C50.008 60.8897 51.2208 64.5003 52.217 68.1804C53.9895 74.0539 56.17 72.7346 56.3713 70.0738C56.4251 69.2011 53.7663 58.1579 53.335 57.1974ZM49.782 48.8321C45.8554 44.5794 45.3531 51.7369 45.0074 53.2428C44.243 56.9078 43.9578 60.0967 40.2918 60.8081C38.3966 60.9739 37.3403 60.8059 36.9451 59.712C35.8052 56.6043 38.2214 52.9685 39.2072 50.8424C39.4136 50.4332 39.5017 49.9746 39.4617 49.518C39.4218 49.0615 39.2554 48.6252 38.9811 48.258C37.6938 46.9384 35.138 47.9866 32.9882 48.2181C29.7621 48.5004 21.8023 49.1968 22.0477 46.0981C22.6192 38.2444 37.2474 41.3395 38.471 39.5007C39.6986 37.6573 36.676 37.8349 34.259 33.9709C33.3901 32.7284 32.8631 31.2792 32.7309 29.7687C32.5988 28.2583 32.8661 26.7396 33.5061 25.3651C33.8692 24.8576 34.3378 24.4347 34.8797 24.1254C35.4217 23.8162 36.0241 23.6279 36.6457 23.5735C37.2674 23.5191 37.8934 23.5999 38.4808 23.8104C39.0682 24.0208 39.6031 24.3559 40.0488 24.7927C41.7256 26.6945 42.7674 29.0773 43.0312 31.5976C43.084 32.2006 42.4142 33.4744 43.7931 34.352C44.1168 34.5768 44.5091 34.6811 44.9017 34.6468C45.2944 34.6124 45.6626 34.4416 45.9424 34.164L49.9632 30.5137C52.5406 28.7691 56.4876 28.2936 57.9854 31.0271C58.9152 32.7252 57.1428 34.79 55.7914 36.2103L53.852 37.8556C53.2133 38.0634 52.5972 38.3355 52.0134 38.6675C51.7351 38.9198 51.5231 39.2366 51.3961 39.59C51.269 39.9434 51.2308 40.3227 51.2848 40.6944C51.3387 41.066 51.4832 41.4188 51.7055 41.7215C51.9278 42.0242 52.2211 42.2677 52.5596 42.4304C58.8745 45.6539 63.8789 47.3428 59.37 52.8066C58.8984 53.3687 56.8072 54.7669 50.3834 49.257L49.782 48.8321Z" fill="#757575" fill-opacity="0.3"/>
</g>
<defs>
<clipPath id="clip0_1803_6516">
<rect width="103.768" height="103.768" fill="white" transform="translate(0 9.04492) rotate(-5)"/>
</clipPath>
</defs>
</svg>
