<svg width="86" height="86" viewBox="0 0 86 86" fill="none" xmlns="http://www.w3.org/2000/svg">
<path d="M35.0955 36.3434C31.4951 40.6341 32.0548 47.0311 36.3456 50.6315C40.6363 54.2319 47.0333 53.6722 50.6337 49.3815C54.2341 45.0907 53.6744 38.6937 49.3837 35.0933C45.0929 31.4929 38.6959 32.0526 35.0955 36.3434Z" stroke="#D690AC" stroke-opacity="0.25" stroke-width="8.33333" stroke-linecap="round" stroke-linejoin="round"/>
<path d="M31.2108 33.0859C28.9059 31.1519 27.2263 28.5778 26.3844 25.6892C25.5424 22.8006 25.576 19.7272 26.4807 16.8577C27.3855 13.9881 29.1208 11.4513 31.4674 9.56804C33.8139 7.68476 36.6662 6.5396 39.6635 6.27736C42.6609 6.01513 45.6687 6.6476 48.3066 8.0948C50.9445 9.542 53.094 11.7389 54.4833 14.4078C55.8726 17.0766 56.4393 20.0975 56.1117 23.0884C55.7842 26.0793 54.5771 28.9059 52.643 31.2108M31.2108 33.0859C28.9059 31.1519 26.0793 29.9448 23.0884 29.6172C20.0975 29.2896 17.0766 29.8564 14.4078 31.2457C11.7389 32.635 9.542 34.7845 8.0948 37.4224C6.6476 40.0603 6.01513 43.0681 6.27737 46.0654C6.5396 49.0628 7.68476 51.9151 9.56804 54.2616C11.4513 56.6081 13.9881 58.3435 16.8577 59.2482C19.7272 60.153 22.8006 60.1865 25.6892 59.3446C28.5778 58.5026 31.1519 56.823 33.0859 54.5181M31.2108 33.0859L35.0954 36.3454M50.6336 49.3835L54.5181 52.643C56.823 54.5771 59.6496 55.7842 62.6405 56.1117C65.6315 56.4393 68.6523 55.8726 71.3212 54.4833C73.99 53.094 76.1869 50.9445 77.6341 48.3066C79.0813 45.6687 79.7138 42.6609 79.4516 39.6635C79.1893 36.6662 78.0442 33.8139 76.1609 31.4674C74.2776 29.1208 71.7408 27.3855 68.8713 26.4807C66.0017 25.576 62.9283 25.5424 60.0397 26.3844C57.1511 27.2263 54.5771 28.9059 52.643 31.2108M52.643 31.2108L49.3835 35.0954M36.3454 50.6336L33.0859 54.5181C31.1519 56.823 29.9448 59.6496 29.6172 62.6405C29.2896 65.6315 29.8564 68.6523 31.2457 71.3212C32.635 73.99 34.7845 76.1869 37.4224 77.6341C40.0603 79.0813 43.0681 79.7138 46.0654 79.4516C49.0628 79.1893 51.9151 78.0442 54.2616 76.1609C56.6081 74.2776 58.3435 71.7408 59.2482 68.8713C60.153 66.0017 60.1865 62.9283 59.3446 60.0397C58.5026 57.1511 56.823 54.5771 54.5181 52.643M61.9153 41.1977L52.9614 41.9811M43.7478 52.9614L44.5312 61.9153M41.1977 23.8136L41.9811 32.7675M32.7675 43.7478L23.8136 44.5312" stroke="#D690AC" stroke-opacity="0.25" stroke-width="8.33333" stroke-linecap="round" stroke-linejoin="round"/>
</svg>
