<svg width="73" height="94" viewBox="0 0 73 94" fill="none" xmlns="http://www.w3.org/2000/svg">
<path d="M30.8963 18.838C30.467 16.4033 30.7693 13.896 31.765 11.6331C32.7607 9.37021 34.405 7.45339 36.4901 6.12504C38.5752 4.79669 41.0074 4.11648 43.479 4.17041C45.9507 4.22434 48.3509 5.01 50.3761 6.42803C52.4012 7.84607 53.9604 9.83279 54.8565 12.137C55.7525 14.4411 55.9452 16.9593 55.4101 19.3729C54.875 21.7866 53.6361 23.9874 51.8503 25.697C50.0644 27.4066 47.8117 28.5482 45.377 28.9775M30.8963 18.838C30.467 16.4033 29.3253 14.1506 27.6157 12.3647C25.9061 10.5789 23.7053 9.34004 21.2917 8.80494C18.878 8.26984 16.3599 8.4625 14.0557 9.35854C11.7515 10.2546 9.76481 11.8138 8.34677 13.8389C6.92874 15.8641 6.14308 18.2643 6.08915 20.736C6.03522 23.2076 6.71543 25.6398 8.04378 27.7249C9.37213 29.81 11.2889 31.4543 13.5518 32.45C15.8147 33.4457 18.3221 33.748 20.7568 33.3187M30.8963 18.838L31.6198 22.9414M45.377 28.9775C47.8117 28.5482 50.319 28.8505 52.5819 29.8462C54.8448 30.8419 56.7616 32.4863 58.09 34.5714C59.4183 36.6565 60.0985 39.0886 60.0446 41.5603C59.9907 44.032 59.205 46.4322 57.787 48.4573C56.3689 50.4825 54.3822 52.0417 52.078 52.9377C49.7739 53.8338 47.2557 54.0264 44.8421 53.4913C42.4284 52.9562 40.2276 51.7174 38.518 49.9315C36.8084 48.1457 35.6668 45.8929 35.2375 43.4582M45.377 28.9775L41.2736 29.7011M20.7568 33.3187C18.3221 33.748 16.0693 34.8897 14.2835 36.5993C12.4976 38.3089 11.2588 40.5097 10.7237 42.9233C10.1886 45.337 10.3812 47.8551 11.2773 50.1593C12.1733 52.4635 13.7325 54.4502 15.7577 55.8682C17.7828 57.2863 20.183 58.0719 22.6547 58.1259C25.1264 58.1798 27.5585 57.4996 29.6436 56.1712C31.7287 54.8429 33.3731 52.9261 34.3688 50.6632C35.3645 48.4003 35.6668 45.8929 35.2375 43.4582M20.7568 33.3187L24.8601 32.5952M35.2375 43.4582L34.5139 39.3549" stroke="#EFB4C0" stroke-opacity="0.45" stroke-width="8.33333" stroke-linecap="round" stroke-linejoin="round"/>
<path d="M34.513 39.3551C39.0454 38.5559 42.0718 34.2337 41.2726 29.7013C40.4734 25.1688 36.1513 22.1424 31.6188 22.9416C27.0864 23.7408 24.06 28.063 24.8592 32.5954C25.6584 37.1279 29.9805 40.1543 34.513 39.3551Z" stroke="#EFB4C0" stroke-opacity="0.45" stroke-width="8.33333" stroke-linecap="round" stroke-linejoin="round"/>
<path d="M34.5126 39.3552L43.195 88.5956M43.195 88.5956C60.4292 85.5567 70.7125 76.6905 68.3009 63.014C51.0668 66.0528 40.7835 74.919 43.195 88.5956ZM43.195 88.5956C25.9609 91.6344 13.2653 86.82 10.8538 73.1435C28.0879 70.1046 40.7835 74.919 43.195 88.5956Z" stroke="#EFB4C0" stroke-opacity="0.45" stroke-width="8.33333" stroke-linecap="round" stroke-linejoin="round"/>
</svg>
