<svg width="337" height="342" viewBox="0 0 337 342" fill="none" xmlns="http://www.w3.org/2000/svg">
<path d="M62.7399 35.1851C77.7694 22.5743 96.2708 14.8191 115.8 12.9439C135.33 11.0686 154.969 15.1615 172.123 24.682C189.278 34.2024 203.141 48.7025 211.882 66.2672C220.623 83.8319 223.83 103.635 221.08 123.06C220.917 124.403 221.032 125.764 221.417 127.06C221.802 128.357 222.449 129.56 223.318 130.596C224.187 131.632 225.26 132.478 226.469 133.082C227.679 133.686 229 134.036 230.35 134.108C250.004 134.681 269.018 141.225 284.861 152.871C300.703 164.517 312.624 180.712 319.035 199.3C325.446 217.888 326.044 237.988 320.749 256.924C315.454 275.86 304.517 292.735 289.395 305.302C258.467 331.254 218.372 330.374 181.115 327.115L47.1185 313.151C42.1165 313.06 37.1911 311.906 32.6697 309.764C28.1483 307.623 24.1342 304.544 20.8942 300.732C17.6543 296.92 15.2625 292.462 13.8779 287.655C12.4933 282.848 12.1476 277.801 12.8636 272.849L22.456 138.033C25.7156 100.775 31.6765 61.2504 62.7399 35.1851Z" stroke="#E89BBA" stroke-opacity="0.3" stroke-width="25" stroke-linecap="round" stroke-linejoin="round"/>
</svg>
