<svg width="71" height="70" viewBox="0 0 71 70" fill="none" xmlns="http://www.w3.org/2000/svg">
<path d="M3.75 65.75C5.92734 52.6974 12.4594 45.0833 23.3461 42.9079C34.2328 40.7325 40.7648 37.4693 42.9422 33.1184M59.2722 3.75C54.9175 12.4518 46.2082 16.8026 33.1441 16.8026C27.0807 16.8026 21.2656 19.2092 16.9782 23.4929C12.6907 27.7767 10.282 33.5866 10.282 39.6447C10.282 45.7028 12.6907 51.5128 16.9782 55.7965C21.2656 60.0803 27.0807 62.4868 33.1441 62.4868C39.4172 62.6866 45.6099 60.8957 50.9812 57.3285C56.3524 53.7613 60.6748 48.5689 63.4312 42.3725C66.1876 36.1761 67.2612 29.238 66.5236 22.3885C65.7861 15.539 63.2685 9.06812 59.2722 3.75Z" stroke="#E89BBA" stroke-opacity="0.3" stroke-width="7.5" stroke-linecap="round" stroke-linejoin="round"/>
</svg>
