<svg width="100" height="100" viewBox="0 0 100 100" fill="none" xmlns="http://www.w3.org/2000/svg">
<g clip-path="url(#clip0_1803_6555)">
<path d="M64.6408 30.9875C66.0575 31.55 67.545 31.9292 69.0575 32.1125C70.5325 32.218 72.0061 32.218 73.4783 32.1125C73.7804 32.1017 74.0666 31.974 74.2765 31.7564C74.4863 31.5388 74.6035 31.2482 74.6033 30.9458C74.6033 30.6475 74.4848 30.3613 74.2738 30.1503C74.0628 29.9394 73.7767 29.8208 73.4783 29.8208C72.0835 29.8028 70.6915 29.6915 69.3116 29.4875C68.0317 29.2703 66.7843 28.8923 65.5991 28.3625C63.297 27.6572 61.3524 26.0968 60.1652 24.0021C58.978 21.9074 58.6382 19.4375 59.2158 17.1C60.0491 14.2667 61.6325 11.7167 63.8033 9.71667C66.8906 6.51942 71.0495 4.57427 75.4825 4.25417C82.8616 3.92083 87.0741 10.3833 87.5741 16.7667C87.8786 18.4209 87.8284 20.1208 87.4269 21.7542C87.0255 23.3876 86.2818 24.9171 85.2452 26.2416C84.2085 27.5662 82.9025 28.6556 81.4135 29.4378C79.9245 30.22 78.2864 30.6772 76.6075 30.7792C76.2612 30.8007 75.9369 30.9563 75.7035 31.213C75.4701 31.4698 75.346 31.8074 75.3575 32.1542C75.3887 32.4968 75.5473 32.8152 75.8019 33.0466C76.0564 33.278 76.3885 33.4056 76.7325 33.4042C87.0741 33.3625 91.7033 25.0208 91.3283 16.6833C91.3954 14.5444 91.0375 12.4134 90.2754 10.4137C89.5132 8.414 88.3619 6.58539 86.8882 5.03373C85.4144 3.48208 83.6474 2.23821 81.6896 1.37416C79.7318 0.510105 77.622 0.0430369 75.4825 0C70.8825 0.281133 66.4952 2.03575 62.97 5.00417C59.3534 7.88068 56.8123 11.8926 55.7575 16.3917C55.1121 19.4969 55.67 22.7313 57.3183 25.4408C58.9666 28.1504 61.5824 30.1329 64.6366 30.9875M24.4783 89.125L11.6741 87.0792C10.6325 86.8708 8.96581 86.8291 7.50748 86.5375C6.87951 86.48 6.27618 86.265 5.75331 85.9125C5.06823 85.1518 4.65751 84.1837 4.58664 83.1625C4.28581 81.2409 4.28581 79.2841 4.58664 77.3625L6.08665 70.3542C6.33665 69.3125 6.54498 66.9792 6.91998 64.7292C7.05609 63.7847 7.27831 62.8667 7.58664 61.975C7.58664 61.6833 8.04498 61.475 7.91998 61.3083C9.24117 60.7609 10.6609 60.4914 12.0908 60.5167C13.2103 60.5167 14.3214 60.6 15.4241 60.7667L13.5491 68.2667C13.1658 69.3917 12.8866 70.5583 12.7158 71.7333C12.6387 72.5391 12.798 73.3499 13.1741 74.0667C14.115 75.2547 15.3135 76.2134 16.6792 76.8702C18.0449 77.5271 19.542 77.865 21.0575 77.8583C22.5734 78.0983 24.125 77.9658 25.5783 77.4721C27.0316 76.9785 28.343 76.1386 29.3991 75.025C30.3616 73.4417 30.945 71.6583 31.1075 69.8167C31.384 67.3494 31.384 64.8589 31.1075 62.3917H34.5283L34.7783 59.5125H34.0283C29.8575 58.9292 26.1866 58.7625 20.7658 57.7625C18.0158 57.1375 15.2353 56.693 12.4241 56.4292C10.3017 56.3114 8.17962 56.6672 6.21164 57.4708C5.06319 58.0988 4.19852 59.1423 3.79498 60.3875C3.01442 63.3097 2.44359 66.2708 2.08248 69.2708C1.70748 70.7292 1.37414 72.2291 1.08248 73.7333C0.790812 75.2333 0.749145 75.775 0.624145 76.8167C0.23466 79.1645 0.23466 81.5605 0.624145 83.9083C0.965812 85.7542 1.91998 87.4292 3.33248 88.6625C4.14081 89.2708 5.08248 89.675 6.08248 89.8292C7.79498 90.1208 9.92414 90.0375 11.2158 90.1625C14.6741 90.4958 16.6366 90.5791 18.9325 90.7875C20.3491 90.7875 21.8908 91.0791 24.0158 91.4125C24.3049 91.4311 24.5905 91.3415 24.8172 91.1611C25.0438 90.9807 25.1953 90.7225 25.2421 90.4366C25.2888 90.1508 25.2276 89.8577 25.0703 89.6145C24.9129 89.3713 24.6707 89.1953 24.3908 89.1208L24.4783 89.125ZM17.2616 68.9792L18.0533 61.0542L20.095 61.3458C23.4366 61.7625 26.02 61.9292 28.4408 62.0958C28.4197 62.2479 28.4197 62.4021 28.4408 62.5542C28.5034 64.7942 28.3077 67.034 27.8575 69.2292C27.6251 70.5081 27.0813 71.7102 26.2741 72.7292C26.0241 73.0625 25.4783 73.1458 24.9366 73.2708C23.8325 73.5375 22.6866 73.6042 21.5616 73.4833C20.414 73.4194 19.2849 73.166 18.22 72.7333C17.72 72.525 17.22 72.4 17.0116 72.0667C16.9851 71.0315 17.0689 69.9965 17.2616 68.9792Z" fill="#757575"/>
<path d="M99.0049 89.7086C96.4204 84.9288 93.5369 80.3169 90.3715 75.9003C89.7848 74.832 89.3235 73.6995 88.9965 72.5253C88.7743 71.6503 88.7743 70.7336 88.9965 69.8586C90.0938 67.1447 90.9688 64.3628 91.6216 61.5128C91.8766 57.5322 91.5963 53.5354 90.7882 49.6294C90.083 45.7628 88.9943 41.976 87.5382 38.3253C87.4874 38.1593 87.4026 38.0057 87.2891 37.8744C87.1757 37.743 87.0361 37.6367 86.8793 37.5622C86.7225 37.4877 86.552 37.4467 86.3784 37.4418C86.2049 37.4369 86.0323 37.4681 85.8715 37.5336C85.5472 37.6629 85.2865 37.9143 85.1455 38.2337C85.0044 38.5531 84.9944 38.9152 85.1174 39.2419C86.4924 42.7461 87.5132 46.3794 88.1591 50.0878C88.8174 53.7461 89.0007 57.4753 88.7007 61.1794C87.9924 63.8128 87.0757 66.3711 85.9507 68.8544C85.5012 70.2972 85.4153 71.8288 85.7007 73.3128C86.0757 74.7656 86.6035 76.1572 87.284 77.4878C90.2408 81.8377 92.9292 86.3642 95.334 91.0419C95.7424 92.0419 95.8424 93.1503 95.6257 94.2086C95.567 94.5809 95.4021 94.9282 95.1508 95.2091C94.8995 95.4899 94.5725 95.6923 94.2091 95.7919C92.8005 96.1488 91.3089 95.9551 90.0382 95.2503C87.7536 94.0267 85.7174 92.3875 84.034 90.417C80.4631 86.8309 77.6292 82.58 75.6924 77.9044C73.809 73.2639 72.956 68.2696 73.1924 63.2669V56.3419C73.1507 54.7364 73.0257 53.1392 72.8174 51.5503C72.6303 50.3436 72.3375 49.1557 71.9424 48.0003C71.7927 47.6551 71.5632 47.3505 71.2727 47.1114C70.9822 46.8724 70.639 46.7058 70.2715 46.6253C67.6337 46.1921 64.9428 46.1921 62.3049 46.6253C56.7174 47.5003 50.5841 49.5836 45.6216 49.8753C44.7084 49.9542 43.7886 49.8551 42.9132 49.5836L43.1632 47.0836C43.6216 46.7086 44.1216 46.2919 44.7882 45.8336L50.0007 43.3336L58.6757 39.7044C60.9674 38.8711 63.2215 38.0794 65.5174 37.4128C67.8203 36.7301 70.1584 36.1723 72.5216 35.7419C72.8365 35.6812 73.1144 35.4978 73.2941 35.2321C73.4738 34.9664 73.5407 34.6402 73.4799 34.3253C73.4191 34.0103 73.2357 33.7324 72.97 33.5527C72.7043 33.373 72.3782 33.3062 72.0632 33.367C69.6021 33.7447 67.1688 34.2586 64.7632 34.9086C62.3882 35.5753 60.0549 36.2836 57.7174 37.1169L48.6674 40.5753L44.0382 42.9544C44.7049 35.4086 45.1216 27.9003 46.0799 20.3919C46.0985 20.1029 46.0089 19.8172 45.8285 19.5906C45.6481 19.3639 45.3899 19.2125 45.104 19.1657C44.8182 19.1189 44.5251 19.1802 44.2819 19.3375C44.0387 19.4948 43.8627 19.737 43.7882 20.0169C42.0799 28.3586 40.5799 36.7003 39.6216 45.042C36.2382 72.5253 38.5341 60.0545 36.4049 80.4503C34.3955 80.4922 32.4528 81.1787 30.8632 82.4086C28.9482 83.9139 27.6428 86.0614 27.1882 88.4545C26.9079 89.6088 26.9009 90.8128 27.1677 91.9703C27.4346 93.1279 27.9679 94.2073 28.7253 95.1225C29.4827 96.0377 30.4433 96.7634 31.5305 97.2421C32.6178 97.7207 33.8018 97.9389 34.9882 97.8794C35.1393 97.8967 35.2924 97.8831 35.4381 97.8395C35.5838 97.796 35.7192 97.7233 35.836 97.626C35.9528 97.5286 36.0487 97.4085 36.1179 97.2731C36.187 97.1376 36.2279 96.9895 36.2382 96.8378C36.2616 96.5348 36.1658 96.2347 35.9713 96.0012C35.7767 95.7678 35.4988 95.6194 35.1966 95.5878C34.4442 95.5694 33.7067 95.3741 33.0439 95.0176C32.3811 94.6612 31.8115 94.1536 31.3814 93.536C30.9513 92.9184 30.6727 92.2082 30.5682 91.4629C30.4637 90.7176 30.5362 89.9582 30.7799 89.2461C31.1534 87.8021 32.0409 86.544 33.276 85.7078C34.511 84.8717 36.0088 84.5149 37.4882 84.7045C38.7417 84.9074 39.8841 85.5443 40.7157 86.5039C41.5474 87.4635 42.0155 88.6848 42.0382 89.9545C42.3716 92.5836 41.2882 95.3378 37.8674 95.4628C37.5239 95.4726 37.1966 95.6106 36.9498 95.8496C36.7031 96.0887 36.5547 96.4115 36.5341 96.7544C36.5339 97.101 36.6686 97.4339 36.9097 97.6828C37.1508 97.9317 37.4794 98.077 37.8257 98.0878C38.9146 98.1703 40.0081 98.0057 41.0245 97.6064C42.0409 97.2071 42.954 96.5833 43.6955 95.7817C44.4371 94.98 44.988 94.0212 45.307 92.9768C45.6261 91.9324 45.7051 90.8295 45.5382 89.7503C45.5273 87.7642 44.8996 85.8305 43.7419 84.2167C42.5841 82.6029 40.9536 81.3887 39.0757 80.742C40.4368 73.2058 41.5896 65.6433 42.5341 58.0544C42.5341 56.4294 42.8674 54.8003 43.0341 53.1753C44.0896 53.4531 45.1618 53.5642 46.2507 53.5086C51.1674 53.5086 57.4257 51.4669 63.1799 50.7544C65.076 50.5071 66.9963 50.5071 68.8924 50.7544V52.3378C69.0591 53.7267 69.1424 55.117 69.1424 56.5086V63.1836C68.8332 68.6518 69.6867 74.1235 71.6465 79.2378C71.3986 79.1326 71.1258 79.1002 70.8602 79.1445C70.5945 79.1887 70.3469 79.3078 70.1465 79.4878C68.9715 80.6156 67.9285 81.8531 67.0174 83.2003C66.0917 84.6493 65.455 86.2636 65.1424 87.9544C64.9057 89.6162 64.5577 91.2602 64.1007 92.8753C63.8924 93.6253 63.6424 94.3336 63.1424 94.5836C61.5966 95.417 60.6382 95.2503 60.0132 94.3753C58.7605 91.7831 58.2007 88.9107 58.3882 86.0378C57.9715 81.8045 58.4799 77.5378 59.8882 73.5253C61.451 69.5675 64.0591 66.1084 67.4341 63.517C67.6546 63.3248 67.795 63.0569 67.8273 62.7661C67.8596 62.4754 67.7815 62.1832 67.6086 61.9473C67.4356 61.7114 67.1803 61.5491 66.8933 61.4926C66.6063 61.436 66.3086 61.4893 66.0591 61.6419C62.0168 64.2185 58.7573 67.8527 56.6341 72.1503C54.7715 76.6208 53.9316 81.451 54.1757 86.2878C54.0716 89.9961 54.9466 93.6628 56.7174 96.9211C57.1726 97.5678 57.7573 98.1129 58.4343 98.5218C59.1113 98.9306 59.8658 99.1944 60.6501 99.2962C61.4344 99.3981 62.2313 99.3358 62.9903 99.1135C63.7492 98.8911 64.4537 98.5134 65.0591 98.0044C66.1757 97.2753 66.9924 96.1628 67.3507 94.8794C67.8952 92.7822 68.2424 90.6544 68.3924 88.4961C68.5299 87.1669 68.9257 85.8794 69.5591 84.7045C70.2646 83.4822 71.0993 82.3558 72.0632 81.3253C72.2171 81.1988 72.3205 81.0215 72.3549 80.8253C74.4883 85.4623 77.4093 89.6944 80.9882 93.3336C83.0978 95.6422 85.597 97.5617 88.3715 99.0044C90.5515 100.061 93.043 100.284 95.3757 99.6294C96.2331 99.3866 97.0224 98.9477 97.6811 98.3475C98.3399 97.7474 98.8501 97.0023 99.1716 96.1711C99.8924 94.0652 99.8332 91.7705 99.0049 89.7044" fill="#757575"/>
</g>
<defs>
<clipPath id="clip0_1803_6555">
<rect width="100" height="100" fill="white"/>
</clipPath>
</defs>
</svg>
