<svg width="120" height="120" viewBox="0 0 120 120" fill="none" xmlns="http://www.w3.org/2000/svg">
<g clip-path="url(#clip0_1803_6535)">
<path fill-rule="evenodd" clip-rule="evenodd" d="M107.54 37.9903C107.774 32.3903 107.657 26.7953 107.19 21.2053C106.89 19.3053 107.19 16.2153 104.84 14.5653C99.3004 11.5153 94.5054 13.4153 88.9604 11.3653C88.7341 8.89522 88.0917 6.48118 87.0604 4.22531C86.2886 3.48651 85.3714 2.91644 84.3672 2.55135C83.3631 2.18626 82.2939 2.03415 81.2278 2.10469C80.1617 2.17523 79.1219 2.46688 78.1746 2.96109C77.2273 3.4553 76.3932 4.14125 75.7254 4.97531C74.5601 6.84676 73.7941 8.93884 73.4754 11.1203C68.7333 10.2888 63.8826 10.2888 59.1404 11.1203C58.8942 8.81848 58.2691 6.5732 57.2904 4.47531C56.5076 3.741 55.5809 3.1773 54.5688 2.81991C53.5568 2.46252 52.4815 2.31924 51.4112 2.39915C50.3409 2.47906 49.2988 2.78042 48.3511 3.28412C47.4033 3.78783 46.5705 4.48291 45.9054 5.32531C44.9294 6.95743 44.2521 8.75048 43.9054 10.6203C40.1471 10.1526 36.3315 10.5809 32.7704 11.8703C32.5388 9.60207 31.9305 7.38835 30.9704 5.32031C30.1713 4.44535 29.1558 3.79619 28.0263 3.43809C26.8967 3.07999 25.6927 3.02558 24.5354 3.28031C19.9854 4.08031 18.1404 7.78031 17.3454 12.4703C16.8454 16.8036 16.5788 21.1503 16.5454 25.5103C16.6454 26.3153 16.9754 27.0803 17.4954 27.7103C19.2954 29.6553 34.9754 34.5503 33.2254 15.3703C36.5302 16.2092 40.0109 16.035 43.2154 14.8703C43.2154 15.7203 42.7154 23.8103 42.8154 24.8603C43.3154 28.7053 46.9654 28.0053 48.8604 28.5053C57.3004 30.6053 60.1454 23.9053 59.4954 15.1203C63.9019 16.3817 68.5739 16.3817 72.9804 15.1203C71.9804 30.1053 73.2304 26.5553 78.6804 28.0553C87.1154 30.1553 89.9654 23.4103 89.2654 14.6203C94.6104 16.0703 99.2554 15.3203 103.1 17.5203C103.65 17.8203 103.5 20.5153 103.65 21.6103C103.98 27.0503 103.98 32.5053 103.65 37.9453C103.65 53.4803 106.2 70.9603 100.9 84.9953C95.6104 99.0303 94.0104 93.5853 79.4754 95.3803C66.5904 96.9803 22.5854 100.38 10.2004 96.5303C9.05042 96.1803 6.55042 95.6303 5.95542 94.6303C3.55042 90.6353 5.00042 79.9003 5.00042 74.9003C5.50042 30.3003 4.50042 22.1503 10.0004 17.3603C12.7904 14.9603 15.5904 14.9603 14.9904 13.1153C14.9292 12.947 14.8352 12.7926 14.7137 12.661C14.5923 12.5294 14.4458 12.4233 14.283 12.3488C14.1201 12.2744 13.944 12.2331 13.7651 12.2273C13.5861 12.2216 13.4077 12.2515 13.2404 12.3153C5.70042 14.9653 3.65042 19.9603 2.75542 27.6503C2.10042 33.0003 1.90042 42.8353 0.800423 74.9003C0.350423 81.1903 -1.24958 91.7303 1.90042 97.2253C5.05042 102.72 20.8804 103.47 27.4704 103.47C45.0785 103.728 62.6838 102.792 80.1654 100.67C85.3004 100.58 90.4235 100.146 95.5004 99.3703C101.04 97.9203 103.49 92.1303 105.485 86.8353C110.835 71.4553 107.685 53.8703 107.535 37.9853M27.6254 22.7003C26.7254 24.6003 25.3254 24.5503 21.0854 24.1003C21.0854 23.3003 21.5354 22.1003 21.5354 21.7003C20.7948 17.0961 21.1024 12.3841 22.4354 7.91531C24.1304 4.62031 27.9254 6.76531 27.9254 6.76531C29.4079 11.9784 29.3733 17.5062 27.8254 22.7003H27.6254ZM53.9504 21.9003C53.0504 23.7003 51.6504 23.7503 47.4054 23.2503C47.4054 22.4503 47.8554 21.2503 47.8554 20.8503C47.1802 16.2327 47.5562 11.5223 48.9554 7.07031C49.9554 4.97031 54.2504 4.67031 54.9454 7.27031C55.1613 8.54204 55.2949 9.82638 55.3454 11.1153C55.8654 14.7553 55.4504 18.4653 54.1454 21.9003H53.9504ZM83.9154 21.9003C82.9654 23.7503 81.5654 23.7503 77.3204 23.3003C77.8204 14.1103 76.8704 10.7153 78.7204 7.07031C79.8204 4.92031 83.7204 4.57031 84.5654 7.07031C85.5904 11.9003 85.3854 16.9203 83.9654 21.6503L83.9154 21.9003Z" fill="#757575"/>
<path d="M113.284 27.6502C112.884 42.0852 113.284 56.4702 113.284 70.9002C113.284 77.7502 113.734 84.6902 113.534 91.5802C113.86 94.7985 112.913 98.0163 110.896 100.546C108.88 103.075 105.954 104.715 102.744 105.115C88.9029 107.702 74.9058 109.372 60.8443 110.115C54.0443 110.615 47.2043 111.16 40.4143 111.26C33.6243 111.36 25.8793 109.76 19.4343 111.71C17.7843 112.21 17.0843 114.91 18.8843 115.705C25.8793 117.68 33.1793 118.34 40.4143 117.655C48.5043 117.655 56.4443 117.655 64.5343 117.405C72.6293 117.155 79.9693 116.005 87.6593 114.905C94.92 114.368 102.068 112.804 108.889 110.26C121.974 104.12 119.874 89.5852 119.874 77.4452C119.524 60.8652 119.324 44.2302 118.274 27.5002C118.184 26.9364 117.896 26.4231 117.462 26.0526C117.028 25.6821 116.475 25.4785 115.904 25.4785C115.333 25.4785 114.781 25.6821 114.347 26.0526C113.912 26.4231 113.624 26.9364 113.534 27.5002L113.284 27.6502Z" fill="#757575"/>
</g>
<defs>
<clipPath id="clip0_1803_6535">
<rect width="120" height="120" fill="white"/>
</clipPath>
</defs>
</svg>
