<svg width="74" height="75" viewBox="0 0 74 75" fill="none" xmlns="http://www.w3.org/2000/svg">
<path d="M50.4178 4.13315C48.5035 4.2 46.6942 5.02455 45.3879 6.42543C44.0815 7.8263 43.3852 9.68874 43.452 11.603L44.2082 33.2565C44.275 35.1708 45.0996 36.9801 46.5005 38.2864C47.9013 39.5928 49.7638 40.2891 51.6781 40.2223C52.6352 40.1888 53.5664 40.537 54.2669 41.1902C54.9673 41.8433 55.3796 42.748 55.413 43.7051L55.539 47.3141C55.6059 49.2283 54.9095 51.0908 53.6032 52.4917C52.2969 53.8925 50.4875 54.7171 48.5733 54.7839C47.6161 54.8174 46.7114 55.2296 46.0583 55.9301C45.4051 56.6305 45.0569 57.5617 45.0904 58.5189L45.3424 65.7367C45.3758 66.6938 45.7881 67.5985 46.4886 68.2517C47.189 68.9048 48.1202 69.253 49.0774 69.2196C54.8202 69.019 60.2482 66.5454 64.1672 62.3427C68.0862 58.1401 70.1752 52.5528 69.9747 46.81L68.7144 10.7208C68.6476 8.80655 67.823 6.99723 66.4221 5.69089C65.0213 4.38456 63.1588 3.68822 61.2445 3.75507L50.4178 4.13315ZM10.7198 5.51943C8.80549 5.58628 6.99616 6.41084 5.68983 7.81171C4.38349 9.21258 3.68716 11.075 3.75401 12.9893L4.51016 34.6428C4.57701 36.5571 5.40157 38.3664 6.80244 39.6727C8.20331 40.9791 10.0657 41.6754 11.98 41.6085C12.9372 41.5751 13.8684 41.9233 14.5688 42.5765C15.2693 43.2296 15.6815 44.1343 15.715 45.0914L15.841 48.7003C15.9078 50.6146 15.2115 52.4771 13.9052 53.8779C12.5988 55.2788 10.7895 56.1034 8.87523 56.1702C7.91809 56.2036 7.01342 56.6159 6.36025 57.3164C5.70709 58.0168 5.35892 58.948 5.39234 59.9052L5.64439 67.123C5.67782 68.0801 6.0901 68.9848 6.79053 69.638C7.49097 70.2911 8.42219 70.6393 9.37933 70.6059C15.1222 70.4053 20.5502 67.9316 24.4692 63.729C28.3882 59.5264 30.4772 53.9391 30.2766 48.1962L29.0164 12.1071C28.9495 10.1928 28.125 8.38351 26.7241 7.07718C25.3232 5.77084 23.4608 5.07451 21.5465 5.14135L10.7198 5.51943Z" stroke="#F2EDEB" stroke-width="7.5" stroke-linecap="round" stroke-linejoin="round"/>
</svg>
