<svg width="174" height="174" viewBox="0 0 174 174" fill="none" xmlns="http://www.w3.org/2000/svg">
<g clip-path="url(#clip0_1803_6509)">
<path fill-rule="evenodd" clip-rule="evenodd" d="M70.826 61.2069C68.4918 54.486 65.6883 47.9374 62.4361 41.6096C61.4746 39.5052 60.4097 37.4565 59.2413 35.4634C54.4027 28.4191 46.1564 33.0966 40.5193 34.7294C32.6909 36.9202 4.32357 48.8613 4.46835 50.9037C4.51677 51.3459 4.73239 51.7529 5.07107 52.0414C5.40975 52.3299 5.84588 52.478 6.29019 52.4554C6.97734 52.2053 31.8892 41.6416 41.7894 39.5347C46.2104 38.5242 50.4729 36.0749 53.9407 37.692C55.5269 38.4316 71.0554 78.1356 71.2478 78.6642C53.9583 89.2669 26.6426 98.0119 25.1284 96.6475C21.8456 93.5324 17.0204 79.9465 12.5534 68.3313C7.70104 53.6838 7.98923 53.1599 6.03836 54.0496C3.15975 54.1994 4.69845 57.1112 5.7422 60.1434C9.41065 72.6161 13.8617 84.8452 19.0688 96.7579C20.8864 100.107 23.0467 102.26 26.5308 102.129C30.015 101.998 69.924 90.6511 76.7112 82.7874C79.6849 78.9515 76.7787 75.0948 70.826 61.2069Z" fill="#757575" fill-opacity="0.3"/>
<path fill-rule="evenodd" clip-rule="evenodd" d="M20.7682 75.11C21.4783 77.7189 22.8794 80.0882 24.8186 81.9623C25.3388 82.368 25.9356 82.6643 26.5733 82.8334C27.2109 83.0025 27.8761 83.0409 28.5289 82.9464C33.5032 82.4529 58.3971 74.2901 61.8272 70.2283C62.2462 69.7561 62.5491 69.1926 62.7116 68.5826C62.8742 67.9726 62.8919 67.333 62.7633 66.715C61.7895 63.5066 60.4995 60.4029 58.9121 57.4496C57.6049 53.7664 55.9516 50.2152 53.9744 46.8438C53.0945 45.2486 52.2814 42.1923 49.4842 41.4146C45.905 40.9079 42.2577 41.564 39.0793 43.2862C32.9574 45.2151 27.6517 48.104 21.7505 50.4913C22.1733 50.3374 15.1143 52.4876 15.4225 54.6501C15.9082 61.7446 17.7216 68.6847 20.7682 75.11ZM19.1514 55.2084C35.2555 50.0654 33.2753 49.2297 47.2554 46.6555C47.2554 46.6555 55.4656 66.2524 55.8713 66.7093C56.2771 67.1662 55.8713 66.7093 40.7005 73.2487C36.4446 75.1568 32.0291 76.6921 27.5043 77.8123C26.4262 76.3803 25.5831 74.7857 25.0068 73.0885C25.1607 73.5113 18.8831 56.2638 18.1188 55.6441L19.1514 55.2084ZM94.5594 77.3681C97.3905 77.2356 137.958 65.8883 144.798 58.0053C148.06 54.3039 145.159 50.4453 139.154 36.5767C136.847 29.8451 134.042 23.2946 130.764 16.9793C129.826 14.8688 128.76 12.818 127.571 10.8385C122.651 3.57219 114.405 8.24967 108.768 9.88241C100.94 12.0733 72.5722 24.0143 72.7117 26.0587C72.7191 26.2799 72.7714 26.4972 72.8655 26.6976C72.9595 26.8979 73.0934 27.077 73.2589 27.224C73.4244 27.3709 73.618 27.4827 73.8281 27.5524C74.0381 27.6222 74.2602 27.6484 74.4807 27.6296C75.2207 27.3603 100.138 16.7947 109.985 14.707C114.406 13.6965 118.669 11.2472 122.137 12.8643C123.723 13.6039 139.251 53.3079 139.444 53.8365C122.154 64.4392 94.8912 73.1649 93.3242 71.8198C90.113 68.918 85.2879 55.3321 80.8209 43.717C75.9685 29.0695 76.2567 28.5456 74.3587 29.416C71.4219 29.5869 72.9659 32.4969 74.0097 35.529C77.7099 47.9979 82.1579 60.2186 87.3363 72.1435C88.8413 75.1275 91.0017 77.2803 94.5628 77.3609" fill="#757575" fill-opacity="0.3"/>
<path fill-rule="evenodd" clip-rule="evenodd" d="M89.0182 50.2698C89.6658 52.8715 90.9679 55.2649 92.8043 57.2183C93.3371 57.619 93.9438 57.9105 94.5896 58.0761C95.2354 58.2417 95.9076 58.2781 96.5675 58.1832C101.484 57.7108 126.377 49.548 129.813 45.4842C130.233 45.0079 130.54 44.4428 130.711 43.8311C130.883 43.2194 130.914 42.577 130.802 41.9517C129.678 38.7923 128.32 35.721 126.739 32.7633C125.459 29.0811 123.859 25.5089 121.96 22.0998C121.027 20.5238 120.267 17.4483 117.417 16.6899C113.838 16.1831 110.19 16.8392 107.012 18.5614C100.885 20.4922 95.6374 23.3599 89.7361 25.7473C90.159 25.5934 83.0947 27.7455 83.35 29.9273C83.9515 37.0028 85.8741 43.9028 89.0182 50.2698ZM87.4543 30.349C103.558 25.2059 101.578 24.3703 115.558 21.796C115.558 21.796 123.768 41.393 124.121 41.8691C124.474 42.3453 124.121 41.8691 108.95 48.4085C104.695 50.3166 100.279 51.8519 95.7489 52.974C94.693 51.5281 93.8518 49.937 93.2514 48.2502C93.4053 48.673 87.1278 31.4256 86.3635 30.8058L87.4543 30.349ZM94.2036 125.434C91.8695 118.713 89.0659 112.165 85.8137 105.837C84.8523 103.733 83.7873 101.684 82.619 99.6908C77.7804 92.6465 69.7648 97.2999 63.8969 98.9567C56.0685 101.148 27.7205 113.142 27.846 115.131C27.8944 115.573 28.11 115.98 28.4487 116.269C28.7874 116.557 29.2235 116.705 29.6678 116.683C30.355 116.433 55.2861 105.922 65.1671 103.762C69.5688 102.699 73.8313 100.249 77.2991 101.867C78.8853 102.606 94.4138 142.31 94.6254 142.892C77.3167 153.441 50.001 162.186 48.4868 160.822C45.2564 157.867 40.412 144.229 35.945 132.613C31.1119 118.019 31.3808 117.442 29.43 118.332C26.5513 118.482 28.1093 121.446 29.1338 124.426C32.8022 136.898 37.2533 149.127 42.4604 161.04C44.278 164.389 46.4383 166.542 49.9224 166.411C53.4066 166.28 93.3136 154.928 100.122 147.122C103.043 143.306 100.444 139.948 94.2036 125.434Z" fill="#757575" fill-opacity="0.3"/>
<path fill-rule="evenodd" clip-rule="evenodd" d="M44.1824 139.444C44.8901 142.03 46.2835 144.378 48.2135 146.244C48.7337 146.649 49.3306 146.946 49.9682 147.115C50.6058 147.284 51.271 147.322 51.9239 147.228C56.8982 146.734 81.8113 138.624 85.2414 134.562C87.6001 131.669 85.379 128.526 82.307 121.731C80.9998 118.048 79.3465 114.497 77.3694 111.125C76.4894 109.53 75.6764 106.474 72.8984 105.749C69.3181 105.18 65.6504 105.82 62.4743 107.568C56.3504 109.491 51.0659 112.438 45.1454 114.773C45.5683 114.619 38.5092 116.769 38.8174 118.931C39.3027 126.045 41.1227 133.004 44.1824 139.444ZM42.5464 119.49C58.6504 114.347 56.7423 113.545 70.6504 110.937C70.6504 110.937 78.8625 130.539 79.2855 131.044C79.7086 131.548 64.624 137.338 64.0955 137.53C59.8992 139.571 55.5026 141.171 50.9762 142.305C49.9059 140.868 49.0635 139.275 48.4787 137.581C48.6326 138.004 42.3742 120.81 41.5907 120.137L42.5464 119.49ZM162.452 100.594C160.144 93.863 157.339 87.3126 154.062 80.9964C153.125 78.884 152.058 76.8314 150.868 74.8503C146.029 67.806 138.013 72.4594 132.146 74.1162C124.317 76.3071 95.9691 88.301 96.0893 90.2925C96.0967 90.5137 96.149 90.731 96.2431 90.9314C96.3372 91.1317 96.471 91.3108 96.6365 91.4578C96.802 91.6047 96.9957 91.7165 97.2057 91.7862C97.4158 91.856 97.6378 91.8822 97.8583 91.8634C98.5983 91.5941 123.535 81.0813 133.363 78.9408C137.765 77.8775 142.08 75.4089 145.495 77.0452C147.081 77.7848 162.61 117.489 162.821 118.07C145.513 128.62 118.25 137.346 116.683 136.001C113.491 133.152 108.666 119.566 104.179 107.898C99.3461 93.3033 99.6151 92.7265 97.7171 93.5969C94.7803 93.7679 96.3435 96.7307 97.368 99.7099C101.066 112.174 105.516 124.4 110.695 136.324C112.584 139.707 114.725 141.807 118.157 141.696C121.588 141.584 161.55 130.218 168.409 122.388C171.291 118.465 168.692 115.107 162.452 100.594Z" fill="#757575" fill-opacity="0.3"/>
<path fill-rule="evenodd" clip-rule="evenodd" d="M112.432 114.603C113.072 117.184 114.374 119.559 116.199 121.499C116.732 121.9 117.339 122.191 117.985 122.357C118.63 122.522 119.303 122.559 119.962 122.464C124.884 121.989 149.792 113.882 153.227 109.818C155.639 106.905 153.365 103.782 150.346 96.967C149.063 93.2795 147.471 89.7267 145.568 86.3088C144.636 84.7328 143.873 81.652 141.041 80.9411C137.128 79.7312 134.168 81.6467 130.617 82.7598C124.489 84.6906 119.261 87.6112 113.341 89.9457C113.763 89.7918 106.699 91.9439 106.954 94.1257C107.48 101.235 109.338 108.182 112.432 114.603ZM110.849 94.6296C126.953 89.4865 124.992 88.7038 138.953 86.0767C138.953 86.0767 147.165 105.679 147.535 106.203C147.906 106.726 132.874 112.497 132.345 112.689C128.148 114.731 123.749 116.332 119.221 117.466C118.151 116.029 117.308 114.436 116.723 112.742C116.877 113.165 110.619 95.9705 109.835 95.2979L110.849 94.6296Z" fill="#757575" fill-opacity="0.3"/>
</g>
<defs>
<clipPath id="clip0_1803_6509">
<rect width="135" height="135" fill="white" transform="translate(0 46.1727) rotate(-20)"/>
</clipPath>
</defs>
</svg>
